# xmcd
#
# Track frame offsets: 
#        150
#        19795
#        41237
#        58707
#        80727
#        96382
#        111557
#        130060
#        148175
#        160792
#        179707
#        191737
#
# Disc length: 2804 seconds
#
# Revision: 1
# Processed by: cddbd v1.5.2PL0 Copyright (c) Steve Scherf et al.
# Submitted via: ExactAudioCopy v0.99pb4
#
DISCID=b70af20c
DTITLE=Glenn Kaiser Band - Blacktop
DYEAR=2003
DGENRE=Blues/Rock
TTITLE0=Blacktop
TTITLE1=Useless Man
TTITLE2=Save Me From Myself
TTITLE3=Voice In The Wind
TTITLE4=Got Everything
TTITLE5=Full Time Love
TTITLE6=Bottle Down
TTITLE7=Whisper
TTITLE8=Got No Opinion
TTITLE9=Used To Be
TTITLE10=Price Of Peace
TTITLE11=Facin' The Music
EXTD=The Glenn Kaiser Band is:\nGlenn Kaiser: guitars, vocals, harmoni
EXTD=ca\nRoy "Big Muff" Montroy: bass\nEd "The Drive" Bailach: drums\n
EXTT0=
EXTT1=
EXTT2=
EXTT3=
EXTT4=
EXTT5=
EXTT6=
EXTT7=
EXTT8=
EXTT9=
EXTT10=
EXTT11=
PLAYORDER=
